<mxfile host="app.diagrams.net" agent="Mozilla/5.0 (Macintosh; Intel Mac OS X 10_15_7) AppleWebKit/537.36 (KHTML, like Gecko) Chrome/127.0.0.0 Safari/537.36 Edg/127.0.0.0" version="24.7.7">
  <diagram name="Page-1" id="1wIMb--POuPUZFigYpO9">
    <mxGraphModel grid="1" page="1" gridSize="10" guides="1" tooltips="1" connect="1" arrows="1" fold="1" pageScale="1" pageWidth="1169" pageHeight="827" math="0" shadow="0">
      <root>
        <mxCell id="0" />
        <mxCell id="1" parent="0" />
        <mxCell id="_WGiuLhOJ4nMPLPSjfv4-7" style="edgeStyle=orthogonalEdgeStyle;rounded=0;orthogonalLoop=1;jettySize=auto;html=1;entryX=0;entryY=0.5;entryDx=0;entryDy=0;" edge="1" parent="1" source="_WGiuLhOJ4nMPLPSjfv4-2" target="_WGiuLhOJ4nMPLPSjfv4-3">
          <mxGeometry relative="1" as="geometry" />
        </mxCell>
        <mxCell id="_WGiuLhOJ4nMPLPSjfv4-8" style="edgeStyle=orthogonalEdgeStyle;rounded=0;orthogonalLoop=1;jettySize=auto;html=1;entryX=0;entryY=0.5;entryDx=0;entryDy=0;" edge="1" parent="1" source="_WGiuLhOJ4nMPLPSjfv4-2" target="_WGiuLhOJ4nMPLPSjfv4-5">
          <mxGeometry relative="1" as="geometry" />
        </mxCell>
        <mxCell id="_WGiuLhOJ4nMPLPSjfv4-9" style="edgeStyle=orthogonalEdgeStyle;rounded=0;orthogonalLoop=1;jettySize=auto;html=1;entryX=0;entryY=0.5;entryDx=0;entryDy=0;" edge="1" parent="1" source="_WGiuLhOJ4nMPLPSjfv4-2" target="_WGiuLhOJ4nMPLPSjfv4-4">
          <mxGeometry relative="1" as="geometry" />
        </mxCell>
        <mxCell id="_WGiuLhOJ4nMPLPSjfv4-2" value="PPT" style="rounded=1;whiteSpace=wrap;html=1;" vertex="1" parent="1">
          <mxGeometry x="100" y="386" width="70" height="36" as="geometry" />
        </mxCell>
        <mxCell id="_WGiuLhOJ4nMPLPSjfv4-14" style="edgeStyle=orthogonalEdgeStyle;rounded=0;orthogonalLoop=1;jettySize=auto;html=1;entryX=0;entryY=0.5;entryDx=0;entryDy=0;" edge="1" parent="1" source="_WGiuLhOJ4nMPLPSjfv4-3" target="_WGiuLhOJ4nMPLPSjfv4-10">
          <mxGeometry relative="1" as="geometry" />
        </mxCell>
        <mxCell id="_WGiuLhOJ4nMPLPSjfv4-3" value="Text Chunk 1" style="rounded=1;whiteSpace=wrap;html=1;" vertex="1" parent="1">
          <mxGeometry x="230" y="320" width="140" height="36" as="geometry" />
        </mxCell>
        <mxCell id="_WGiuLhOJ4nMPLPSjfv4-15" style="edgeStyle=orthogonalEdgeStyle;rounded=0;orthogonalLoop=1;jettySize=auto;html=1;entryX=0;entryY=0.5;entryDx=0;entryDy=0;" edge="1" parent="1" source="_WGiuLhOJ4nMPLPSjfv4-4" target="_WGiuLhOJ4nMPLPSjfv4-11">
          <mxGeometry relative="1" as="geometry" />
        </mxCell>
        <mxCell id="_WGiuLhOJ4nMPLPSjfv4-4" value="Text Chunk 2" style="rounded=1;whiteSpace=wrap;html=1;" vertex="1" parent="1">
          <mxGeometry x="230" y="370" width="140" height="36" as="geometry" />
        </mxCell>
        <mxCell id="_WGiuLhOJ4nMPLPSjfv4-16" style="edgeStyle=orthogonalEdgeStyle;rounded=0;orthogonalLoop=1;jettySize=auto;html=1;" edge="1" parent="1" source="_WGiuLhOJ4nMPLPSjfv4-5" target="_WGiuLhOJ4nMPLPSjfv4-12">
          <mxGeometry relative="1" as="geometry" />
        </mxCell>
        <mxCell id="_WGiuLhOJ4nMPLPSjfv4-5" value="Text Chunk n" style="rounded=1;whiteSpace=wrap;html=1;" vertex="1" parent="1">
          <mxGeometry x="230" y="450" width="140" height="36" as="geometry" />
        </mxCell>
        <mxCell id="_WGiuLhOJ4nMPLPSjfv4-6" value="" style="endArrow=none;dashed=1;html=1;dashPattern=1 3;strokeWidth=3;rounded=0;entryX=0.5;entryY=1;entryDx=0;entryDy=0;" edge="1" parent="1" target="_WGiuLhOJ4nMPLPSjfv4-4">
          <mxGeometry width="50" height="50" relative="1" as="geometry">
            <mxPoint x="300" y="440" as="sourcePoint" />
            <mxPoint x="520" y="460" as="targetPoint" />
          </mxGeometry>
        </mxCell>
        <mxCell id="_WGiuLhOJ4nMPLPSjfv4-18" style="edgeStyle=orthogonalEdgeStyle;rounded=0;orthogonalLoop=1;jettySize=auto;html=1;" edge="1" parent="1" source="_WGiuLhOJ4nMPLPSjfv4-10" target="_WGiuLhOJ4nMPLPSjfv4-17">
          <mxGeometry relative="1" as="geometry" />
        </mxCell>
        <mxCell id="_WGiuLhOJ4nMPLPSjfv4-10" value="Embeddings 1" style="rounded=1;whiteSpace=wrap;html=1;" vertex="1" parent="1">
          <mxGeometry x="445" y="320" width="140" height="36" as="geometry" />
        </mxCell>
        <mxCell id="_WGiuLhOJ4nMPLPSjfv4-19" style="edgeStyle=orthogonalEdgeStyle;rounded=0;orthogonalLoop=1;jettySize=auto;html=1;" edge="1" parent="1" source="_WGiuLhOJ4nMPLPSjfv4-11">
          <mxGeometry relative="1" as="geometry">
            <mxPoint x="740" y="388" as="targetPoint" />
          </mxGeometry>
        </mxCell>
        <mxCell id="_WGiuLhOJ4nMPLPSjfv4-11" value="Embeddings 2" style="rounded=1;whiteSpace=wrap;html=1;" vertex="1" parent="1">
          <mxGeometry x="445" y="370" width="140" height="36" as="geometry" />
        </mxCell>
        <mxCell id="_WGiuLhOJ4nMPLPSjfv4-12" value="Embeddings n" style="rounded=1;whiteSpace=wrap;html=1;" vertex="1" parent="1">
          <mxGeometry x="445" y="450" width="140" height="36" as="geometry" />
        </mxCell>
        <mxCell id="_WGiuLhOJ4nMPLPSjfv4-13" value="" style="endArrow=none;dashed=1;html=1;dashPattern=1 3;strokeWidth=3;rounded=0;entryX=0.5;entryY=1;entryDx=0;entryDy=0;exitX=0.5;exitY=0;exitDx=0;exitDy=0;" edge="1" parent="1" source="_WGiuLhOJ4nMPLPSjfv4-12" target="_WGiuLhOJ4nMPLPSjfv4-11">
          <mxGeometry width="50" height="50" relative="1" as="geometry">
            <mxPoint x="515" y="439" as="sourcePoint" />
            <mxPoint x="310" y="415" as="targetPoint" />
          </mxGeometry>
        </mxCell>
        <mxCell id="_WGiuLhOJ4nMPLPSjfv4-24" style="edgeStyle=orthogonalEdgeStyle;rounded=0;orthogonalLoop=1;jettySize=auto;html=1;" edge="1" parent="1" source="_WGiuLhOJ4nMPLPSjfv4-17" target="_WGiuLhOJ4nMPLPSjfv4-21">
          <mxGeometry relative="1" as="geometry" />
        </mxCell>
        <mxCell id="_WGiuLhOJ4nMPLPSjfv4-17" value="Vector Store" style="shape=cylinder3;whiteSpace=wrap;html=1;boundedLbl=1;backgroundOutline=1;size=15;" vertex="1" parent="1">
          <mxGeometry x="750" y="348" width="60" height="80" as="geometry" />
        </mxCell>
        <mxCell id="_WGiuLhOJ4nMPLPSjfv4-20" style="edgeStyle=orthogonalEdgeStyle;rounded=0;orthogonalLoop=1;jettySize=auto;html=1;entryX=0;entryY=0.5;entryDx=0;entryDy=0;entryPerimeter=0;" edge="1" parent="1" source="_WGiuLhOJ4nMPLPSjfv4-12" target="_WGiuLhOJ4nMPLPSjfv4-17">
          <mxGeometry relative="1" as="geometry" />
        </mxCell>
        <mxCell id="_WGiuLhOJ4nMPLPSjfv4-29" style="edgeStyle=orthogonalEdgeStyle;rounded=0;orthogonalLoop=1;jettySize=auto;html=1;entryX=0.5;entryY=1;entryDx=0;entryDy=0;" edge="1" parent="1" source="_WGiuLhOJ4nMPLPSjfv4-21" target="_WGiuLhOJ4nMPLPSjfv4-22">
          <mxGeometry relative="1" as="geometry" />
        </mxCell>
        <mxCell id="_WGiuLhOJ4nMPLPSjfv4-21" value="Ranked Results" style="rounded=1;whiteSpace=wrap;html=1;" vertex="1" parent="1">
          <mxGeometry x="900" y="370" width="140" height="36" as="geometry" />
        </mxCell>
        <mxCell id="_WGiuLhOJ4nMPLPSjfv4-28" style="edgeStyle=orthogonalEdgeStyle;rounded=0;orthogonalLoop=1;jettySize=auto;html=1;" edge="1" parent="1" source="_WGiuLhOJ4nMPLPSjfv4-22">
          <mxGeometry relative="1" as="geometry">
            <mxPoint x="970" y="240" as="targetPoint" />
          </mxGeometry>
        </mxCell>
        <mxCell id="_WGiuLhOJ4nMPLPSjfv4-22" value="LLM&amp;nbsp;&lt;div&gt;(OpenAI, HuggingFace)&lt;/div&gt;" style="rounded=1;whiteSpace=wrap;html=1;" vertex="1" parent="1">
          <mxGeometry x="900" y="284" width="140" height="36" as="geometry" />
        </mxCell>
        <mxCell id="_WGiuLhOJ4nMPLPSjfv4-23" value="Answer" style="rounded=1;whiteSpace=wrap;html=1;" vertex="1" parent="1">
          <mxGeometry x="900" y="200" width="140" height="36" as="geometry" />
        </mxCell>
        <mxCell id="_WGiuLhOJ4nMPLPSjfv4-32" style="edgeStyle=orthogonalEdgeStyle;rounded=0;orthogonalLoop=1;jettySize=auto;html=1;entryX=0.5;entryY=0;entryDx=0;entryDy=0;exitX=0.1;exitY=0.5;exitDx=0;exitDy=0;exitPerimeter=0;" edge="1" parent="1" source="_WGiuLhOJ4nMPLPSjfv4-26" target="_WGiuLhOJ4nMPLPSjfv4-30">
          <mxGeometry relative="1" as="geometry">
            <Array as="points">
              <mxPoint x="780" y="155" />
            </Array>
          </mxGeometry>
        </mxCell>
        <mxCell id="_WGiuLhOJ4nMPLPSjfv4-26" value="" style="shape=actor;whiteSpace=wrap;html=1;" vertex="1" parent="1">
          <mxGeometry x="860" y="130" width="40" height="50" as="geometry" />
        </mxCell>
        <mxCell id="_WGiuLhOJ4nMPLPSjfv4-27" style="edgeStyle=orthogonalEdgeStyle;rounded=0;orthogonalLoop=1;jettySize=auto;html=1;entryX=0.9;entryY=0.5;entryDx=0;entryDy=0;entryPerimeter=0;" edge="1" parent="1" source="_WGiuLhOJ4nMPLPSjfv4-23" target="_WGiuLhOJ4nMPLPSjfv4-26">
          <mxGeometry relative="1" as="geometry">
            <Array as="points">
              <mxPoint x="970" y="155" />
            </Array>
          </mxGeometry>
        </mxCell>
        <mxCell id="_WGiuLhOJ4nMPLPSjfv4-33" style="edgeStyle=orthogonalEdgeStyle;rounded=0;orthogonalLoop=1;jettySize=auto;html=1;entryX=0.5;entryY=0;entryDx=0;entryDy=0;" edge="1" parent="1" source="_WGiuLhOJ4nMPLPSjfv4-30" target="_WGiuLhOJ4nMPLPSjfv4-31">
          <mxGeometry relative="1" as="geometry" />
        </mxCell>
        <mxCell id="_WGiuLhOJ4nMPLPSjfv4-30" value="Question embedding" style="rounded=1;whiteSpace=wrap;html=1;" vertex="1" parent="1">
          <mxGeometry x="710" y="200" width="140" height="36" as="geometry" />
        </mxCell>
        <mxCell id="_WGiuLhOJ4nMPLPSjfv4-31" value="Semantic Search" style="rounded=1;whiteSpace=wrap;html=1;" vertex="1" parent="1">
          <mxGeometry x="710" y="284" width="140" height="36" as="geometry" />
        </mxCell>
        <mxCell id="_WGiuLhOJ4nMPLPSjfv4-34" style="edgeStyle=orthogonalEdgeStyle;rounded=0;orthogonalLoop=1;jettySize=auto;html=1;entryX=0.5;entryY=0;entryDx=0;entryDy=0;entryPerimeter=0;" edge="1" parent="1" source="_WGiuLhOJ4nMPLPSjfv4-31" target="_WGiuLhOJ4nMPLPSjfv4-17">
          <mxGeometry relative="1" as="geometry" />
        </mxCell>
        <mxCell id="_WGiuLhOJ4nMPLPSjfv4-35" value="Knowledge Base&lt;div&gt;FAISS / Pinecone&lt;/div&gt;" style="text;html=1;align=center;verticalAlign=middle;resizable=0;points=[];autosize=1;strokeColor=none;fillColor=none;" vertex="1" parent="1">
          <mxGeometry x="720" y="432" width="120" height="40" as="geometry" />
        </mxCell>
        <mxCell id="_WGiuLhOJ4nMPLPSjfv4-36" value="PDF" style="rounded=1;whiteSpace=wrap;html=1;" vertex="1" parent="1">
          <mxGeometry x="50" y="340" width="70" height="36" as="geometry" />
        </mxCell>
        <mxCell id="_WGiuLhOJ4nMPLPSjfv4-37" value="Word" style="rounded=1;whiteSpace=wrap;html=1;" vertex="1" parent="1">
          <mxGeometry x="10" y="396" width="70" height="36" as="geometry" />
        </mxCell>
        <mxCell id="_WGiuLhOJ4nMPLPSjfv4-38" value="&lt;h1&gt;&lt;font color=&quot;#1a1a1a&quot;&gt;Multi&lt;/font&gt;&lt;font color=&quot;#00cccc&quot;&gt;Document&lt;/font&gt;-&lt;font color=&quot;#00cc00&quot;&gt;AI&lt;/font&gt;&lt;/h1&gt;&lt;h1&gt;Anish Mahapatra&lt;/h1&gt;" style="text;html=1;align=center;verticalAlign=middle;resizable=0;points=[];autosize=1;strokeColor=none;fillColor=none;" vertex="1" parent="1">
          <mxGeometry x="340" y="140" width="230" height="120" as="geometry" />
        </mxCell>
        <mxCell id="aPh8dAT0zi3Snb0CQriO-1" value="Excel" style="rounded=1;whiteSpace=wrap;html=1;" vertex="1" parent="1">
          <mxGeometry x="70" y="440" width="70" height="36" as="geometry" />
        </mxCell>
      </root>
    </mxGraphModel>
  </diagram>
</mxfile>
